HIERARCHY
ROOT SpineBase
{
  OFFSET 0.000000 0.000000 0.000000
  CHANNELS 6 Xposition Yposition Zposition Zrotation Xrotation Yrotation
  JOINT SpineMid
  {
    OFFSET -0.000000 31.202979 0.000000
    CHANNELS 3 Zrotation Xrotation Yrotation
    JOINT SpineShoulder
    {
      OFFSET -0.096669 23.105710 -0.649805
      CHANNELS 3 Zrotation Xrotation Yrotation
      JOINT Neck
      {
        OFFSET -0.086219 7.616041 -0.532431
        CHANNELS 3 Zrotation Xrotation Yrotation
        JOINT Head
        {
          OFFSET -3.913216 12.947566 2.051833
          CHANNELS 3 Zrotation Xrotation Yrotation
          End Site
          {
            OFFSET 0 0 0
          }
        }
      }
      JOINT ShoulderLeft
      {
        OFFSET -13.373082 -4.637882 13.109906
        CHANNELS 3 Zrotation Xrotation Yrotation
        JOINT ElbowLeft
        {
          OFFSET -3.049311 -26.150162 -0.030623
          CHANNELS 3 Zrotation Xrotation Yrotation
          JOINT WristLeft
          {
            OFFSET 3.314252 -19.039547 -14.235362
            CHANNELS 3 Zrotation Xrotation Yrotation
            JOINT HandLeft
            {
              OFFSET 1.255759 -3.959531 -3.082972
              CHANNELS 3 Zrotation Xrotation Yrotation
              JOINT HandTipLeft
              {
                OFFSET 2.271462 -3.068817 -2.649164
                CHANNELS 3 Zrotation Xrotation Yrotation
                End Site
                {
                  OFFSET 0 0 0
                }
              }
              JOINT ThumbLeft
              {
                OFFSET 1.650485 2.346893 -5.671402
                CHANNELS 3 Zrotation Xrotation Yrotation
                End Site
                {
                  OFFSET 0 0 0
                }
              }
            }
          }
        }
      }
      JOINT ShoulderRight
      {
        OFFSET 10.727032 -3.795052 -12.053768
        CHANNELS 3 Zrotation Xrotation Yrotation
        JOINT ElbowRight
        {
          OFFSET 3.465873 -22.413253 -6.401874
          CHANNELS 3 Zrotation Xrotation Yrotation
          JOINT WristRight
          {
            OFFSET -14.136659 -18.358782 0.694820
            CHANNELS 3 Zrotation Xrotation Yrotation
            JOINT HandRight
            {
              OFFSET -2.863865 -5.829691 5.027026
              CHANNELS 3 Zrotation Xrotation Yrotation
              JOINT HandTipRight
              {
                OFFSET -0.888961 -3.005213 0.227243
                CHANNELS 3 Zrotation Xrotation Yrotation
                End Site
                {
                  OFFSET 0 0 0
                }
              }
              JOINT ThumbRight
              {
                OFFSET 3.752733 -6.316720 -3.611725
                CHANNELS 3 Zrotation Xrotation Yrotation
                End Site
                {
                  OFFSET 0 0 0
                }
              }
            }
          }
        }
      }
    }
  }
  JOINT HipLeft
  {
    OFFSET -6.015942 -0.587404 1.499884
    CHANNELS 3 Zrotation Xrotation Yrotation
    JOINT KneeLeft
    {
      OFFSET 5.835814 -35.183715 9.150265
      CHANNELS 3 Zrotation Xrotation Yrotation
      JOINT AnkleLeft
      {
        OFFSET 14.333244 -34.391328 7.484289
        CHANNELS 3 Zrotation Xrotation Yrotation
        JOINT FootLeft
        {
          OFFSET -1.004945 -8.753136 -5.238914
          CHANNELS 3 Zrotation Xrotation Yrotation
          End Site
          {
            OFFSET 0 0 0
          }
        }
      }
    }
  }
  JOINT HipRight
  {
    OFFSET 4.784593 1.805411 -8.559228
    CHANNELS 3 Zrotation Xrotation Yrotation
    JOINT KneeRight
    {
      OFFSET 6.480173 -33.771421 -2.388315
      CHANNELS 3 Zrotation Xrotation Yrotation
      JOINT AnkleRight
      {
        OFFSET 11.325171 -37.073529 11.552654
        CHANNELS 3 Zrotation Xrotation Yrotation
        JOINT FootRight
        {
          OFFSET -8.070183 -4.567602 -10.445935
          CHANNELS 3 Zrotation Xrotation Yrotation
          End Site
          {
            OFFSET 0 0 0
          }
        }
      }
    }
  }
}
MOTION
Frames: 6
Frame Time: 0.033333
60.038876 78.915583 347.166498 0.000000 0.000000 42.964369 -0.000000 0.000000 -42.964369 -0.000000 0.000000 0.000000 -0.000000 0.000000 0.000000 0.000000 0.000000 0.000000 -0.000000 0.000000 0.000000 -0.000000 0.000000 0.000000 -0.000000 0.000000 0.000000 -0.000000 0.000000 0.000000 0.000000 0.000000 0.000000 0.000000 0.000000 0.000000 -0.000000 0.000000 0.000000 -0.000000 0.000000 0.000000 -0.000000 0.000000 0.000000 -0.000000 0.000000 0.000000 0.000000 0.000000 0.000000 0.000000 0.000000 0.000000 -0.000000 0.000000 -42.964369 -0.000000 0.000000 0.000000 -0.000000 0.000000 0.000000 0.000000 0.000000 0.000000 -0.000000 0.000000 -42.964369 -0.000000 0.000000 0.000000 -0.000000 0.000000 0.000000 0.000000 0.000000 0.000000
59.988662 78.961892 347.412609 -0.006980 -0.222447 43.080921 0.157037 0.157705 -43.081150 -0.000000 0.000000 0.000000 -0.000000 0.000000 0.000000 0.000000 0.000000 0.000000 -0.000000 0.000000 0.000000 -0.000000 0.000000 0.000000 -0.859598 2.054281 1.320951 0.018143 -1.002252 0.169493 0.000000 0.000000 0.000000 0.000000 0.000000 0.000000 -0.000000 0.000000 0.000000 -0.000000 0.000000 0.000000 -1.008281 -0.931976 -0.415123 -15.276797 -1.355998 -0.228870 0.000000 0.000000 0.000000 0.000000 0.000000 0.000000 0.157037 0.157705 -43.081150 -0.000000 0.000000 0.000000 -1.948715 -2.531160 1.430092 0.000000 0.000000 0.000000 0.928289 0.645764 -42.933474 -0.232281 -0.882637 -0.154873 -0.000000 0.000000 0.000000 0.000000 0.000000 0.000000
60.030094 78.998508 347.501633 -0.010383 -0.463098 43.239064 0.324810 0.330253 -43.240042 -0.000000 0.000000 0.000000 0.416700 0.757257 0.159741 0.000000 0.000000 0.000000 0.372978 -0.904287 0.107998 -0.371320 0.904969 -0.102122 -1.463430 3.870802 2.364090 -0.776617 -2.333961 0.588265 0.000000 0.000000 0.000000 0.000000 0.000000 0.000000 -0.000000 0.000000 0.000000 1.189364 0.376431 -0.250788 -3.208794 -2.323004 -0.585704 -23.086781 -1.837341 -0.076930 0.000000 0.000000 0.000000 0.000000 0.000000 0.000000 0.324810 0.330253 -43.240042 -0.000000 0.000000 0.000000 -3.685920 -5.241663 2.703887 0.000000 0.000000 0.000000 1.697046 1.123813 -42.998805 -0.178421 -0.222707 0.223115 -0.289293 -1.292223 -0.486836 0.000000 0.000000 0.000000
60.163170 79.025432 347.433571 -0.010209 -0.722022 43.438957 -0.144064 -0.044983 -43.444555 -0.023414 -0.067514 -0.011880 0.760108 1.962562 0.211157 0.000000 0.000000 0.000000 0.637016 -0.366897 0.164194 -1.383261 0.390814 0.354481 -0.902282 6.395942 2.668198 -2.322639 -3.955385 1.186318 0.000000 0.000000 0.000000 0.000000 0.000000 0.000000 0.107031 0.921283 0.017061 2.028209 0.455758 -0.286187 -5.076590 -3.496850 -0.952238 -27.342539 -1.913361 0.360043 0.000000 0.000000 0.000000 0.000000 0.000000 0.000000 1.190456 0.926689 -43.265664 -0.843138 -1.457378 -0.621399 -4.502804 -7.448402 4.296390 0.000000 0.000000 0.000000 2.310797 1.435191 -43.154596 -0.437642 -0.143050 0.292644 -0.262297 -1.760715 -0.621124 0.000000 0.000000 0.000000
60.387891 79.042662 347.208421 -0.006455 -0.999296 43.680684 -0.173611 -0.069765 -43.687430 -0.023747 -0.079940 -0.014236 1.016385 2.513134 0.227469 0.000000 0.000000 0.000000 0.772676 -0.374183 0.204137 -1.921661 0.221071 0.543815 -0.535901 8.350925 2.957779 -4.566637 -5.851028 1.901461 0.000000 0.000000 0.000000 0.000000 0.000000 0.000000 0.107136 1.249629 0.020484 3.031217 0.460562 -0.257364 -7.129556 -4.691974 -1.359501 -29.757601 -1.752018 0.981422 0.000000 0.000000 0.000000 0.000000 0.000000 0.000000 1.375615 1.190062 -43.518331 -1.134929 -1.810033 -0.829659 -5.338754 -10.148447 5.489369 0.000000 0.000000 0.000000 2.771267 1.580378 -43.396812 -0.812955 0.056767 0.332240 -0.244191 -2.406411 0.131951 0.000000 0.000000 0.000000
60.704257 79.050200 346.826185 0.000883 -1.295003 43.964249 -0.194081 -0.099473 -43.971848 -0.020366 -0.087310 -0.015826 1.275321 3.013377 0.217011 0.000000 0.000000 0.000000 0.868318 -0.320490 0.236346 -2.500136 -0.108010 0.768188 0.183479 10.262937 2.933295 -7.461610 -8.018690 2.676902 0.000000 0.000000 0.000000 0.000000 0.000000 0.000000 0.089495 1.588678 0.023024 4.197553 0.390862 -0.160924 -9.373422 -5.924001 -1.798336 -31.119634 -1.412094 1.730301 0.000000 0.000000 0.000000 0.000000 0.000000 0.000000 0.898447 0.932683 -43.971552 -1.373882 -1.355168 -0.882189 -5.796420 -12.904737 6.562443 0.000000 0.000000 0.000000 3.077331 1.559128 -43.723072 -1.306796 0.374602 0.343944 -0.004888 -2.724575 0.378879 0.000000 0.000000 0.000000
